<mxfile host="app.diagrams.net" modified="2022-10-28T21:45:58.285Z" agent="5.0 (X11; Linux x86_64) AppleWebKit/537.36 (KHTML, like Gecko) Chrome/107.0.0.0 Safari/537.36" etag="BpppAnAROJKrKL7rk5Jy" version="20.5.1" type="github">
  <diagram id="nz11MDpfT53MlEPlpADr" name="PÃ¡gina-1">
    <mxGraphModel dx="1038" dy="589" grid="1" gridSize="10" guides="1" tooltips="1" connect="1" arrows="1" fold="1" page="1" pageScale="1" pageWidth="827" pageHeight="1169" math="0" shadow="0">
      <root>
        <mxCell id="0" />
        <mxCell id="1" parent="0" />
      </root>
    </mxGraphModel>
  </diagram>
</mxfile>
